<svg width="489" height="301" viewBox="0 0 489 301" fill="none" xmlns="http://www.w3.org/2000/svg">
<path fill-rule="evenodd" clip-rule="evenodd" d="M296.31 3.04176C335.389 9.90283 371.212 26.6934 400.814 49.2139C431.954 72.9045 454.437 101.585 467.238 133.08C481.933 169.234 499.203 209.682 478.824 241.146C458.336 272.778 403.85 276.158 363.75 292.862C317.638 312.071 280.989 356.811 226.61 346.208C172.301 335.62 159.116 277.368 118.931 245.13C76.5867 211.16 -8.98189 198.066 -14.0545 153.137C-19.2403 107.206 56.7981 89.9873 98.1187 60.7956C125.517 41.4392 151.091 21.8338 186.346 11.5606C220.874 1.49893 258.193 -3.65028 296.31 3.04176Z" fill="#434343"/>
</svg>
